<svg width="8" height="13" viewBox="0 0 8 13" fill="none" xmlns="http://www.w3.org/2000/svg">
<path d="M7.64471 0.913366C7.75733 1.01279 7.84669 1.13089 7.90765 1.2609C7.96862 1.39091 8 1.53028 8 1.67104C8 1.81179 7.96862 1.95116 7.90765 2.08117C7.84669 2.21119 7.75733 2.32928 7.64471 2.42871L2.93089 6.59859L7.64471 10.7685C7.75719 10.868 7.84641 10.9861 7.90728 11.1161C7.96815 11.2461 7.99949 11.3854 7.99949 11.5261C7.99949 11.6669 7.96815 11.8062 7.90728 11.9362C7.84641 12.0662 7.75719 12.1843 7.64471 12.2838C7.53223 12.3833 7.3987 12.4622 7.25174 12.5161C7.10478 12.5699 6.94727 12.5977 6.7882 12.5977C6.62913 12.5977 6.47162 12.5699 6.32466 12.5161C6.1777 12.4622 6.04417 12.3833 5.9317 12.2838L0.355291 7.35089C0.242666 7.25146 0.153312 7.13337 0.0923467 7.00335C0.0313811 6.87334 0 6.73397 0 6.59322C0 6.45247 0.0313811 6.31309 0.0923467 6.18308C0.153312 6.05307 0.242666 5.93497 0.355291 5.83555L5.9317 0.902619C6.39336 0.494228 7.1709 0.494228 7.64471 0.913366Z" fill="#232324"/>
</svg>
