<svg width="170" height="25" viewBox="0 0 170 25" fill="none" xmlns="http://www.w3.org/2000/svg">
<g clip-path="url(#clip0_1225_5285)">
<mask id="mask0_1225_5285" style="mask-type:luminance" maskUnits="userSpaceOnUse" x="0" y="0" width="170" height="25">
<path d="M170 0.0712891H0V24.9493H170V0.0712891Z" fill="white"/>
</mask>
<g mask="url(#mask0_1225_5285)">
<path d="M80.0491 17.6188C79.6687 19.03 78.1649 20.1928 76.7054 20.1928H66.9397C65.48 20.1928 64.5955 19.0389 64.9758 17.6188L68.5584 4.20772C68.9388 2.7965 70.4426 1.63379 71.9021 1.63379H81.6679C83.1275 1.63379 84.012 2.78762 83.6317 4.20772L80.0491 17.6188Z" fill="#16C7B0"/>
<path d="M-0.000183105 1.97998H10.3988V3.74632H2.16421V10.0405H8.58274V11.8068H2.16421V19.7678H-0.000183105V1.97998Z" fill="#232324"/>
<path d="M12.7084 6.7564H14.7733V19.7676H12.7084V6.7564ZM13.7035 4.04469C13.322 4.04469 12.9986 3.91201 12.7333 3.64664C12.4679 3.38128 12.3352 3.05786 12.3352 2.6764C12.3352 2.29493 12.4679 1.97152 12.7333 1.70615C12.9986 1.44079 13.322 1.30811 13.7035 1.30811C14.085 1.30811 14.4084 1.44079 14.6737 1.70615C14.9391 1.97152 15.0718 2.29493 15.0718 2.6764C15.0718 3.05786 14.9391 3.38128 14.6737 3.64664C14.4084 3.91201 14.085 4.04469 13.7035 4.04469Z" fill="#232324"/>
<path d="M17.5648 6.75613H19.6296V8.82101C19.9282 8.20735 20.4257 7.67662 21.1223 7.22881C21.8355 6.76442 22.7311 6.53223 23.8091 6.53223C24.4726 6.53223 25.0862 6.63174 25.6501 6.83076C26.214 7.0132 26.695 7.32003 27.0931 7.75125C27.5077 8.16589 27.8228 8.70492 28.0384 9.36833C28.2706 10.0317 28.3867 10.8361 28.3867 11.7815V19.7673H26.3218V11.6322C26.3218 10.4878 26.073 9.65029 25.5755 9.11955C25.0779 8.58882 24.3067 8.32345 23.2618 8.32345C22.7809 8.32345 22.3165 8.39808 21.8687 8.54735C21.4374 8.69662 21.056 8.92053 20.7243 9.21907C20.3926 9.5176 20.1272 9.89077 19.9282 10.3386C19.7291 10.7863 19.6296 11.3005 19.6296 11.881V19.7673H17.5648V6.75613Z" fill="#232324"/>
<path d="M36.9057 19.9912C35.9769 19.9912 35.131 19.8337 34.3681 19.5185C33.6052 19.2034 32.9418 18.7639 32.3779 18.2C31.8139 17.6195 31.3744 16.9229 31.0593 16.1102C30.7608 15.2976 30.6115 14.3937 30.6115 13.3985V13.1995C30.6115 12.221 30.7608 11.3254 31.0593 10.5127C31.3579 9.68346 31.7725 8.97857 32.3032 8.39808C32.8505 7.80101 33.4974 7.34491 34.2437 7.02979C34.99 6.69808 35.811 6.53223 36.7066 6.53223C37.453 6.53223 38.1744 6.65662 38.871 6.9054C39.5842 7.13759 40.2144 7.51076 40.7618 8.02491C41.3091 8.53906 41.7403 9.21077 42.0554 10.04C42.3871 10.8527 42.553 11.8395 42.553 13.0005V13.6722H32.751C32.8008 15.1649 33.174 16.3093 33.8705 17.1054C34.5671 17.8849 35.5871 18.2746 36.9305 18.2746C38.9705 18.2746 40.1232 17.52 40.3886 16.0107H42.4535C42.2213 17.321 41.6076 18.3161 40.6125 18.9961C39.6174 19.6595 38.3818 19.9912 36.9057 19.9912ZM40.4383 12.0054C40.3388 10.662 39.9574 9.70004 39.294 9.11955C38.6471 8.53907 37.7847 8.24881 36.7066 8.24881C35.6452 8.24881 34.7744 8.58882 34.0944 9.26882C33.431 9.93224 33.0081 10.8444 32.8257 12.0054H40.4383Z" fill="#232324"/>
<path d="M44.9272 6.75613H46.9921V9.09468C47.1911 8.7298 47.4151 8.39808 47.6638 8.09954C47.9292 7.78442 48.2277 7.51906 48.5594 7.30345C48.8911 7.07125 49.2809 6.88881 49.7287 6.75613C50.1765 6.62345 50.6907 6.54881 51.2711 6.53223V8.47271C50.6243 8.50589 50.0355 8.58881 49.5048 8.72149C48.9741 8.85418 48.518 9.07809 48.1365 9.39321C47.7716 9.70833 47.4897 10.1313 47.2907 10.662C47.0916 11.1761 46.9921 11.8312 46.9921 12.6273V19.7673H44.9272V6.75613Z" fill="#232324"/>
<path d="M57.4585 18.4241L52.3585 6.75635H54.5726L58.5531 16.0856L62.1604 6.75635H64.275L57.0853 24.2953H54.9955L57.4585 18.4241Z" fill="#232324"/>
<path d="M86.5712 1.97998H89.5814L95.0795 15.837L100.403 1.97998H103.389V19.7678H101.224V4.7912L95.3282 19.7678H94.6565L88.5614 4.7912V19.7678H86.5712V1.97998Z" fill="#232324"/>
<path d="M110.23 19.9912C109.633 19.9912 109.069 19.9166 108.538 19.7673C108.008 19.6181 107.543 19.3859 107.145 19.0707C106.764 18.7556 106.457 18.3576 106.225 17.8766C106.009 17.3956 105.901 16.8234 105.901 16.16C105.901 15.4137 106.084 14.7834 106.449 14.2693C106.813 13.7551 107.294 13.3405 107.891 13.0254C108.505 12.7102 109.202 12.4863 109.981 12.3537C110.777 12.2044 111.59 12.1298 112.419 12.1298H114.285V11.1844C114.285 10.1396 114.07 9.39321 113.638 8.94541C113.207 8.48102 112.494 8.24881 111.499 8.24881C109.708 8.24881 108.712 9.02833 108.513 10.5873H106.449C106.515 9.84102 106.697 9.21076 106.996 8.69662C107.311 8.18247 107.701 7.76784 108.165 7.45271C108.646 7.12101 109.177 6.88881 109.757 6.75613C110.354 6.60686 110.968 6.53223 111.598 6.53223C112.212 6.53223 112.809 6.60686 113.39 6.75613C113.97 6.88881 114.476 7.13759 114.907 7.50247C115.338 7.85076 115.687 8.32346 115.952 8.92053C116.217 9.5176 116.35 10.2722 116.35 11.1844V19.7673H114.285V18.1254C113.804 18.739 113.249 19.2034 112.618 19.5185C111.988 19.8337 111.192 19.9912 110.23 19.9912ZM110.429 18.3493C110.976 18.3493 111.482 18.2829 111.947 18.1502C112.428 18.001 112.834 17.7937 113.166 17.5283C113.514 17.2629 113.788 16.9395 113.987 16.5581C114.186 16.16 114.285 15.7122 114.285 15.2146V13.5976H112.494C111.847 13.5976 111.242 13.6473 110.678 13.7468C110.131 13.8298 109.65 13.9707 109.235 14.1698C108.837 14.3688 108.522 14.6341 108.29 14.9659C108.074 15.281 107.966 15.679 107.966 16.16C107.966 16.84 108.149 17.379 108.513 17.7771C108.878 18.1585 109.517 18.3493 110.429 18.3493Z" fill="#232324"/>
<path d="M118.993 6.75613H121.058V9.09467C121.257 8.72979 121.481 8.39808 121.73 8.09954C121.995 7.78442 122.294 7.51906 122.626 7.30345C122.957 7.07125 123.347 6.88881 123.795 6.75613C124.243 6.62345 124.757 6.54881 125.337 6.53223V8.47271C124.691 8.50588 124.102 8.58881 123.571 8.72149C123.04 8.85418 122.584 9.07808 122.203 9.3932C121.838 9.70832 121.556 10.1313 121.357 10.662C121.158 11.1761 121.058 11.8312 121.058 12.6273V19.7673H118.993V6.75613Z" fill="#232324"/>
<path d="M127.642 0.536621H129.707V12.7517L135.106 6.75613H137.519L131.946 12.8015L137.992 19.7673H135.479L129.707 13.0254V19.7673H127.642V0.536621Z" fill="#232324"/>
<path d="M144.526 19.9912C143.597 19.9912 142.752 19.8337 141.989 19.5185C141.226 19.2034 140.562 18.7639 139.998 18.2C139.435 17.6195 138.995 16.9229 138.68 16.1103C138.381 15.2976 138.232 14.3937 138.232 13.3985V13.1995C138.232 12.221 138.381 11.3254 138.68 10.5127C138.978 9.68345 139.393 8.97857 139.924 8.39808C140.471 7.80101 141.118 7.34491 141.864 7.02979C142.611 6.69808 143.432 6.53223 144.327 6.53223C145.074 6.53223 145.795 6.65662 146.492 6.9054C147.205 7.13759 147.835 7.51076 148.382 8.02491C148.93 8.53906 149.361 9.21076 149.676 10.04C150.008 10.8527 150.174 11.8395 150.174 13.0005V13.6722H140.372C140.421 15.1649 140.794 16.3093 141.491 17.1054C142.188 17.8849 143.208 18.2746 144.551 18.2746C146.591 18.2746 147.744 17.52 148.009 16.0107H150.074C149.842 17.321 149.228 18.3161 148.233 18.9961C147.238 19.6595 146.002 19.9912 144.526 19.9912ZM148.059 12.0054C147.959 10.662 147.578 9.70003 146.915 9.11954C146.268 8.53906 145.405 8.24881 144.327 8.24881C143.266 8.24881 142.395 8.58881 141.715 9.26881C141.052 9.93223 140.629 10.8444 140.446 12.0054H148.059Z" fill="#232324"/>
<path d="M156.673 19.9422C155.479 19.9422 154.592 19.6271 154.011 18.9969C153.448 18.3666 153.166 17.5373 153.166 16.509V8.49834H151.3V6.75687H153.166V3.79639H155.23V6.75687H158.266V8.49834H155.23V16.31C155.23 17.5705 155.769 18.2008 156.848 18.2008C157.179 18.2008 157.469 18.1759 157.718 18.1261C157.967 18.0764 158.208 18.01 158.44 17.9271V19.6686C158.224 19.7515 157.984 19.8178 157.718 19.8676C157.453 19.9173 157.105 19.9422 156.673 19.9422Z" fill="#232324"/>
<path d="M164.887 19.9912C163.328 19.9912 162.101 19.6264 161.205 18.8966C160.326 18.1503 159.853 17.1054 159.787 15.762H161.802C161.885 16.5415 162.15 17.1551 162.598 17.6029C163.062 18.0507 163.817 18.2746 164.862 18.2746C165.857 18.2746 166.579 18.1088 167.026 17.7771C167.474 17.4288 167.698 16.9064 167.698 16.2098C167.698 15.5298 167.441 15.0405 166.927 14.742C166.429 14.4434 165.675 14.2029 164.663 14.0205C163.817 13.8712 163.104 13.6971 162.523 13.4981C161.943 13.2825 161.479 13.0254 161.13 12.7268C160.782 12.4283 160.525 12.0717 160.359 11.6571C160.21 11.2425 160.135 10.7532 160.135 10.1893C160.135 9.59223 160.268 9.06979 160.533 8.62198C160.799 8.15759 161.139 7.77613 161.553 7.47759C161.984 7.16247 162.457 6.93028 162.971 6.78101C163.502 6.61515 164.024 6.53223 164.539 6.53223C165.119 6.53223 165.675 6.59857 166.205 6.73125C166.736 6.84735 167.209 7.05467 167.623 7.3532C168.055 7.65174 168.411 8.0415 168.693 8.52247C168.975 9.00345 169.158 9.59223 169.241 10.2888H167.25C167.101 9.57564 166.811 9.06149 166.38 8.74637C165.965 8.41467 165.343 8.24881 164.514 8.24881C163.767 8.24881 163.17 8.42296 162.722 8.77125C162.275 9.10296 162.051 9.55076 162.051 10.1147C162.051 10.4132 162.092 10.6703 162.175 10.8859C162.275 11.0849 162.441 11.2673 162.673 11.4332C162.905 11.5824 163.212 11.7234 163.593 11.8561C163.991 11.9722 164.489 12.08 165.086 12.1795C165.749 12.3122 166.363 12.4615 166.927 12.6273C167.491 12.7766 167.972 12.9922 168.37 13.2742C168.784 13.5395 169.1 13.8961 169.315 14.3439C169.547 14.7751 169.663 15.339 169.663 16.0356C169.663 17.2298 169.265 18.1917 168.469 18.9215C167.673 19.6346 166.479 19.9912 164.887 19.9912Z" fill="#232324"/>
</g>
</g>
<defs>
<clipPath id="clip0_1225_5285">
<rect width="170" height="24.878" fill="white" transform="translate(0 0.0712891)"/>
</clipPath>
</defs>
</svg>
