<svg width="41" height="40" viewBox="0 0 41 40" fill="none" xmlns="http://www.w3.org/2000/svg">
<path d="M0.5 2.865C0.5 1.2825 1.815 0 3.4375 0H37.5625C39.185 0 40.5 1.2825 40.5 2.865V37.135C40.5 38.7175 39.185 40 37.5625 40H3.4375C1.815 40 0.5 38.7175 0.5 37.135V2.865ZM12.8575 33.485V15.4225H6.855V33.485H12.8575ZM9.8575 12.955C11.95 12.955 13.2525 11.57 13.2525 9.835C13.215 8.0625 11.9525 6.715 9.8975 6.715C7.8425 6.715 6.5 8.065 6.5 9.835C6.5 11.57 7.8025 12.955 9.8175 12.955H9.8575ZM22.1275 33.485V23.3975C22.1275 22.8575 22.1675 22.3175 22.3275 21.9325C22.76 20.855 23.7475 19.7375 25.4075 19.7375C27.58 19.7375 28.4475 21.3925 28.4475 23.8225V33.485H34.45V23.125C34.45 17.575 31.49 14.995 27.54 14.995C24.355 14.995 22.9275 16.745 22.1275 17.9775V18.04H22.0875L22.1275 17.9775V15.4225H16.1275C16.2025 17.1175 16.1275 33.485 16.1275 33.485H22.1275Z" fill="white"/>
</svg>
