<svg width="143" height="30" viewBox="0 0 143 30" fill="none" xmlns="http://www.w3.org/2000/svg">
<path d="M35.6679 1.12155L31.2388 5.53329C31.1082 5.6633 31.0352 5.84012 31.0352 6.02387V28.8713C31.0352 29.062 31.1918 29.218 31.3832 29.218H34.4984C34.6899 29.218 34.8465 29.062 34.8465 28.8713V22.4296C34.8465 20.9943 36.016 19.8294 37.457 19.8294H51.31C52.751 19.8294 53.9205 20.9943 53.9205 22.4296V28.8713C53.9205 29.062 54.0771 29.218 54.2686 29.218H57.3838C57.5752 29.218 57.7318 29.062 57.7318 28.8713V5.54196C57.7318 5.35821 57.6587 5.18139 57.5282 5.05138L53.5794 1.12155C53.4489 0.991537 53.2714 0.918731 53.0869 0.918731H36.1587C35.976 0.916997 35.7984 0.991537 35.6679 1.12155ZM53.9188 7.31359V14.6463C53.9188 15.4107 53.294 16.0331 52.5265 16.0331H36.237C35.4695 16.0331 34.8447 15.4107 34.8447 14.6463V7.31359C34.8447 5.87999 36.016 4.71335 37.4552 4.71335H51.3083C52.7493 4.71335 53.9188 5.87999 53.9188 7.31359Z" fill="#232324"/>
<path d="M62.8229 1.2654V23.2461C62.8229 23.4298 62.896 23.6067 63.0265 23.7367L68.3258 29.0152C68.4563 29.1452 68.6338 29.218 68.8183 29.218H80.9484C81.1399 29.218 81.2965 29.062 81.2965 28.8713V25.7683C81.2965 25.5776 81.1399 25.4216 80.9484 25.4216H69.243C67.802 25.4216 66.6325 24.2567 66.6325 22.8214V1.2654C66.6325 1.07472 66.4758 0.918701 66.2844 0.918701H63.1692C62.9795 0.918701 62.8229 1.07472 62.8229 1.2654Z" fill="#232324"/>
<path d="M102.319 28.873V25.7701C102.319 25.5794 102.162 25.4234 101.971 25.4234H90.2651C88.8241 25.4234 87.6546 24.2585 87.6546 22.8231V1.2654C87.6546 1.07472 87.498 0.918701 87.3065 0.918701H84.1913C83.9999 0.918701 83.8433 1.07472 83.8433 1.2654V23.2461C83.8433 23.4298 83.9164 23.6067 84.0469 23.7367L89.3462 29.0152C89.4767 29.1452 89.6542 29.218 89.8387 29.218H101.969C102.162 29.2197 102.319 29.0637 102.319 28.873Z" fill="#232324"/>
<path d="M111.218 28.8056V1.19802C111.218 1.00733 111.061 0.851318 110.87 0.851318H107.755C107.563 0.851318 107.407 1.00733 107.407 1.19802V28.8039C107.407 28.9946 107.563 29.1506 107.755 29.1506H110.87C111.063 29.1523 111.218 28.9963 111.218 28.8056Z" fill="#232324"/>
<path d="M142.799 24.4283C142.925 24.2983 142.996 24.125 142.996 23.9447V17.8757C142.996 17.8376 142.998 17.7995 143.003 17.7613V13.906C143.003 13.5229 142.692 13.2126 142.307 13.2126H120.997C120.516 13.2126 120.126 12.8243 120.126 12.3459V7.31356C120.126 5.87823 121.296 4.71332 122.737 4.71332H136.583C138.024 4.71332 139.193 5.87823 139.193 7.31356V9.18746C139.193 9.37815 139.35 9.53416 139.542 9.53416H142.657C142.848 9.53416 143.005 9.37815 143.005 9.18746V1.2654C143.005 1.07472 142.848 0.918701 142.657 0.918701H121.513C121.284 0.918701 121.061 1.01058 120.897 1.17179L116.569 5.48299C116.406 5.64767 116.315 5.86436 116.315 6.09665V16.664C116.315 16.8547 116.472 17.0107 116.663 17.0107H138.316C138.797 17.0107 139.186 17.399 139.186 17.8775V22.8231C139.186 24.2585 138.017 25.4234 136.576 25.4234H122.73C121.289 25.4234 120.119 24.2585 120.119 22.8231V20.9492C120.119 20.7585 119.963 20.6025 119.771 20.6025H116.656C116.465 20.6025 116.308 20.7585 116.308 20.9492V28.8713C116.308 29.062 116.465 29.218 116.656 29.218H137.864C138.052 29.218 138.233 29.1417 138.363 29.0082L142.799 24.4283Z" fill="#232324"/>
<path d="M11.5127 14.2879L25.8948 1.52591C26.135 1.31443 25.9853 0.919189 25.6651 0.919189H21.3595C21.276 0.919189 21.1959 0.948659 21.1333 1.0024L4.44177 15.1494C4.29907 15.269 4.08153 15.1702 4.08153 14.9848C4.08153 12.0898 4.08675 1.26589 4.08675 1.26589C4.08675 1.0752 3.93012 0.919189 3.73868 0.919189H0.621748C0.430311 0.919189 0.273682 1.0752 0.273682 1.26589V28.8735C0.273682 29.0642 0.430311 29.2202 0.621748 29.2202H3.73694C3.92838 29.2202 4.08501 29.0642 4.08501 28.8735V21.6708C4.08501 20.9202 4.41045 20.206 4.9778 19.712L8.31053 16.9193C8.95445 16.3577 9.91337 16.4097 10.4929 17.0372L23.3087 29.1075C23.3748 29.1786 23.4671 29.2202 23.5645 29.2202H28.199C28.5018 29.2202 28.6602 28.8614 28.4549 28.6395L13.8744 14.4682C13.7525 14.3486 13.589 14.2792 13.4184 14.2706L11.5127 14.2879Z" fill="#232324"/>
</svg>
