<svg width="131" height="42" viewBox="0 0 131 42" fill="none" xmlns="http://www.w3.org/2000/svg">
<path d="M8.36719 3.77539V33.0733H37.6651V3.77539H8.36719ZM36.7318 32.14H9.28079V4.68934H36.7318V32.14Z" fill="#121F3E"/>
<path d="M53.6691 28.0012V13.8057H58.6589C59.6587 13.8057 60.4868 13.9647 61.1425 14.2827C61.7983 14.6007 62.2883 15.0338 62.613 15.5815C62.9374 16.1285 63.0999 16.7396 63.0999 17.415C63.0999 18.3346 62.8529 19.0579 62.3597 19.5849C61.8662 20.1122 61.2748 20.4777 60.5853 20.6811C61.1123 20.7761 61.5921 20.9857 62.0248 21.3101C62.4572 21.6337 62.7981 22.039 63.0478 22.5259C63.2983 23.0127 63.4235 23.5468 63.4235 24.1272C63.4235 24.8442 63.2476 25.4964 62.8959 26.0846C62.5448 26.6728 62.0248 27.1396 61.3353 27.4847C60.6458 27.8291 59.8075 28.0012 58.8207 28.0012H53.6691ZM55.3731 20.0113H58.5365C59.4427 20.0113 60.1385 19.7984 60.6247 19.3724C61.1116 18.9467 61.355 18.355 61.355 17.598C61.355 16.8814 61.1147 16.3069 60.6345 15.8742C60.155 15.4418 59.4356 15.2255 58.4759 15.2255H55.3731V20.0113ZM55.3731 26.5813H58.6378C59.6115 26.5813 60.3619 26.3555 60.8892 25.9031C61.4162 25.45 61.6801 24.8178 61.6801 24.0062C61.6801 23.209 61.4029 22.5705 60.8484 22.0911C60.294 21.6109 59.5433 21.3706 58.597 21.3706H55.3731V26.5813Z" fill="#121F3E"/>
<path d="M70.3588 28.2445C69.4121 28.2445 68.5605 28.0282 67.8034 27.5958C67.0463 27.1635 66.4483 26.5517 66.0093 25.7609C65.5702 24.97 65.3507 24.0406 65.3507 22.9719C65.3507 21.9045 65.5734 20.9751 66.0191 20.1843C66.4655 19.3934 67.0706 18.782 67.8344 18.3493C68.5977 17.9159 69.4529 17.6992 70.3996 17.6992C71.3459 17.6992 72.198 17.9159 72.955 18.3493C73.7121 18.782 74.3101 19.3934 74.7492 20.1843C75.1889 20.9751 75.4091 21.9045 75.4091 22.9719C75.4091 24.0406 75.1857 24.97 74.7393 25.7609C74.2925 26.5517 73.6875 27.1635 72.9241 27.5958C72.1603 28.0282 71.3051 28.2445 70.3588 28.2445ZM70.3588 26.7839C70.9403 26.7839 71.481 26.6425 71.9813 26.3589C72.4812 26.0747 72.8864 25.649 73.1971 25.0812C73.5084 24.5138 73.6642 23.8105 73.6642 22.9719C73.6642 22.1343 73.5123 21.4317 73.2083 20.8639C72.9044 20.2954 72.5019 19.8698 72.001 19.5862C71.5007 19.302 70.9671 19.1599 70.3996 19.1599C69.8178 19.1599 69.2771 19.302 68.7772 19.5862C68.2769 19.8698 67.8713 20.2954 67.56 20.8639C67.2493 21.4317 67.0942 22.1343 67.0942 22.9719C67.0942 23.8105 67.2493 24.5138 67.56 25.0812C67.8713 25.649 68.2737 26.0747 68.7673 26.3589C69.2605 26.6425 69.791 26.7839 70.3588 26.7839Z" fill="#121F3E"/>
<path d="M76.7677 28.0008L80.2561 22.9716L76.7677 17.9424H78.6125L81.431 22.0992L84.2707 17.9424H86.0958L82.6074 22.9716L86.0958 28.0008H84.2707L81.431 23.844L78.6125 28.0008H76.7677Z" fill="#121F3E"/>
<path d="M87.9811 28.0012V13.8057H92.9709C93.9707 13.8057 94.7988 13.9647 95.4545 14.2827C96.1103 14.6007 96.6003 15.0338 96.925 15.5815C97.2494 16.1285 97.4119 16.7396 97.4119 17.415C97.4119 18.3346 97.1649 19.0579 96.6717 19.5849C96.1782 20.1122 95.5868 20.4777 94.8973 20.6811C95.4243 20.7761 95.9041 20.9857 96.3368 21.3101C96.7692 21.6337 97.1101 22.039 97.3598 22.5259C97.6103 23.0127 97.7356 23.5468 97.7356 24.1272C97.7356 24.8442 97.5597 25.4964 97.2079 26.0846C96.8568 26.6728 96.3368 27.1396 95.6473 27.4847C94.9578 27.8291 94.1195 28.0012 93.1327 28.0012H87.9811ZM89.6852 20.0113H92.8485C93.7547 20.0113 94.4505 19.7984 94.9367 19.3724C95.4236 18.9467 95.667 18.355 95.667 17.598C95.667 16.8814 95.4267 16.3069 94.9466 15.8742C94.4671 15.4418 93.7476 15.2255 92.788 15.2255H89.6852V20.0113ZM89.6852 26.5813H92.9498C93.9235 26.5813 94.6739 26.3555 95.2012 25.9031C95.7282 25.45 95.9921 24.8178 95.9921 24.0062C95.9921 23.209 95.7149 22.5705 95.1604 22.0911C94.606 21.6109 93.8553 21.3706 92.909 21.3706H89.6852V26.5813Z" fill="#121F3E"/>
<path d="M104.671 28.2445C103.724 28.2445 102.873 28.0282 102.116 27.5958C101.358 27.1635 100.76 26.5517 100.321 25.7609C99.8824 24.97 99.6628 24.0406 99.6628 22.9719C99.6628 21.9045 99.8855 20.9751 100.331 20.1843C100.778 19.3934 101.383 18.782 102.146 18.3493C102.91 17.9159 103.765 17.6992 104.712 17.6992C105.658 17.6992 106.51 17.9159 107.267 18.3493C108.024 18.782 108.622 19.3934 109.061 20.1843C109.501 20.9751 109.721 21.9045 109.721 22.9719C109.721 24.0406 109.498 24.97 109.051 25.7609C108.605 26.5517 108 27.1635 107.236 27.5958C106.472 28.0282 105.617 28.2445 104.671 28.2445ZM104.671 26.7839C105.252 26.7839 105.793 26.6425 106.293 26.3589C106.793 26.0747 107.199 25.649 107.509 25.0812C107.821 24.5138 107.976 23.8105 107.976 22.9719C107.976 22.1343 107.824 21.4317 107.52 20.8639C107.217 20.2954 106.814 19.8698 106.313 19.5862C105.813 19.302 105.279 19.1599 104.712 19.1599C104.13 19.1599 103.589 19.302 103.089 19.5862C102.589 19.8698 102.183 20.2954 101.872 20.8639C101.561 21.4317 101.406 22.1343 101.406 22.9719C101.406 23.8105 101.561 24.5138 101.872 25.0812C102.183 25.649 102.586 26.0747 103.079 26.3589C103.573 26.6425 104.103 26.7839 104.671 26.7839Z" fill="#121F3E"/>
<path d="M111.08 28.0008L114.568 22.9716L111.08 17.9424H112.925L115.743 22.0992L118.583 17.9424H120.408L116.92 22.9716L120.408 28.0008H118.583L115.743 23.844L112.925 28.0008H111.08Z" fill="#121F3E"/>
<path d="M13.2529 8.98389V38.2818H42.5508V8.98389H13.2529ZM41.6175 37.3488H14.1669V9.89784H41.6175V37.3488Z" fill="#121F3E"/>
<path d="M8.88818 4.29614V32.4782H37.0698V4.29614H8.88818ZM36.1724 31.5804H9.76731V5.17527H36.1724V31.5804Z" fill="#121F3E"/>
<path d="M13.7739 9.50537V37.687H41.9559V9.50537H13.7739ZM41.0582 36.7893H14.6531V10.3841H41.0582V36.7893Z" fill="#121F3E"/>
</svg>
