<svg width="109" height="32" viewBox="0 0 109 32" fill="none" xmlns="http://www.w3.org/2000/svg">
<path fill-rule="evenodd" clip-rule="evenodd" d="M2.02383 8.2876C0.711076 10.5849 -6.80753e-06 13.2104 -7.05141e-06 16.0001L-8.11776e-06 28.1978L-8.15124e-06 28.5806C-8.21818e-06 29.3464 0.273481 29.9481 0.765765 30.4404C1.31275 30.9327 1.91443 31.2062 2.62551 31.2062L15.6984 31.2062L16.136 31.2062C18.7615 31.2062 21.1135 30.5498 23.3014 29.1823C25.4347 27.8696 27.1303 26.0645 28.3337 23.7672C29.537 21.4699 30.1387 18.8444 30.1387 16.0001C30.1387 13.1558 29.4823 10.5849 28.1696 8.28761C26.8568 5.99028 25.0518 4.13054 22.7545 2.81778C20.4571 1.50502 17.8863 0.793944 15.042 0.793944C12.2524 0.793944 9.73629 1.50502 7.43896 2.81778C5.14164 4.13054 3.33659 5.99028 2.02383 8.2876Z" fill="url(#paint0_linear_1176_516)"/>
<path fill-rule="evenodd" clip-rule="evenodd" d="M15.3713 14.1037C15.3191 14.1068 15.2663 14.1084 15.2128 14.1084H15.1365H12.856C12.732 14.1084 12.627 14.0607 12.5316 13.9748C12.4457 13.8889 12.398 13.784 12.398 13.6504V13.5836V11.4558C12.398 10.9692 12.5221 10.5112 12.7511 10.1104C12.9801 9.7097 13.295 9.38528 13.6957 9.15628C14.0964 8.92728 14.5354 8.80324 15.022 8.80324C15.0533 8.80324 15.0845 8.80374 15.1154 8.80472C15.1461 8.80373 15.1769 8.80322 15.2079 8.80322L24.7349 8.80322C24.9868 8.80322 25.191 9.00741 25.191 9.25929V9.9706C25.191 12.2532 23.3405 14.1037 21.0579 14.1037H15.3713ZM15.213 21.2285C15.2671 21.2285 15.3204 21.2269 15.3732 21.2237H18.4475C20.7302 21.2237 22.5806 19.3732 22.5806 17.0906V16.3793C22.5806 16.1274 22.3764 15.9232 22.1245 15.9232H15.2082C15.1767 15.9232 15.1454 15.9237 15.1142 15.9248C15.0837 15.9238 15.053 15.9233 15.0222 15.9233C14.5356 15.9233 14.0967 16.0474 13.6959 16.2764C13.2952 16.5054 12.9803 16.8298 12.7513 17.2306C12.5223 17.6313 12.3982 18.0893 12.3982 18.5759V20.7037V20.7705C12.3982 20.9041 12.446 21.009 12.5318 21.0949C12.6272 21.1808 12.7322 21.2285 12.8562 21.2285H15.1367H15.213ZM10.8721 25.6514C10.8721 26.1381 10.748 26.5961 10.519 26.9968C10.29 27.3976 9.97516 27.722 9.57441 27.951C9.17366 28.18 8.73475 28.304 8.24812 28.304C7.75196 28.304 7.3035 28.18 6.90275 27.951C6.50201 27.722 6.18713 27.3976 5.95813 26.9968C5.72914 26.5961 5.61464 26.1476 5.61464 25.6514C5.61464 25.1553 5.71959 24.6973 5.92951 24.2965C6.13943 23.8958 6.43522 23.5809 6.80734 23.3519C7.189 23.1134 7.5993 22.9989 8.05729 22.9989H8.13363H10.4141C10.5381 22.9989 10.6431 23.0466 10.7385 23.1325C10.8244 23.2183 10.8721 23.3233 10.8721 23.4569V23.5237V25.6514ZM8.08464 8.80328L8.12125 8.80352L8.22411 8.80352C8.71073 8.80352 9.16873 8.92756 9.56948 9.15656C9.97022 9.38556 10.2946 9.70043 10.5236 10.1012C10.7526 10.5019 10.8767 10.9408 10.8767 11.4275C10.8767 11.4483 10.8765 11.469 10.876 11.4896C10.8774 11.5251 10.878 11.5608 10.878 11.5967V20.8535C10.878 21.1054 10.6739 21.3096 10.422 21.3096H9.70456C7.42192 21.3096 5.57147 19.4591 5.57147 17.1765L5.57147 9.25935C5.57147 9.11909 5.63479 8.99362 5.73439 8.90996C5.80125 8.85268 5.87918 8.81694 5.97204 8.80663C5.99023 8.80442 6.00875 8.80328 6.02754 8.80328L8.08464 8.80328Z" fill="white"/>
<path d="M42.2913 7.56751H47.0773V3.4978H42.1611C36.8216 3.4978 35.7147 6.23265 35.617 10.2698H33.2728V14.1767H35.617V28.1765H40.1751V14.1767H47.0773V10.2698H40.1751C40.2076 8.3489 40.4681 7.56751 42.2913 7.56751Z" fill="white"/>
<path d="M56.2249 28.5022C59.4155 28.5022 61.2713 27.6557 62.3457 26.0604V28.1766H66.9038V10.2699H62.3457V12.3536C61.3039 10.7908 59.4481 9.94434 56.2249 9.94434C49.9412 9.94434 46.8483 13.1675 46.8483 19.2233C46.8483 25.0185 49.7133 28.5022 56.2249 28.5022ZM51.4063 19.2233C51.4063 16.0326 53.4249 14.3396 56.876 14.3396C60.4248 14.3396 62.3457 16.1629 62.3457 19.2233C62.3457 22.4139 60.3271 24.1069 56.876 24.1069C53.3272 24.1069 51.4063 22.2837 51.4063 19.2233Z" fill="white"/>
<path d="M83.1462 18.4093V28.1766H87.7042V18.4093C87.7042 13.135 84.1555 9.94434 79.2067 9.94434C76.2114 9.94434 74.3882 10.7583 73.3137 12.2885V10.2699H68.7557V28.1766H73.3137V18.4093C73.3137 15.7722 75.3323 14.3396 78.23 14.3396C81.2253 14.3396 83.1462 15.9024 83.1462 18.4093Z" fill="white"/>
<path d="M98.3212 28.5022C101.512 28.5022 103.368 27.6557 104.442 26.0604V28.1766H109V10.2699H104.442V12.3536C103.4 10.7908 101.544 9.94434 98.3212 9.94434C92.0376 9.94434 88.9446 13.1675 88.9446 19.2233C88.9446 25.0185 91.8097 28.5022 98.3212 28.5022ZM93.5027 19.2233C93.5027 16.0326 95.5212 14.3396 98.9724 14.3396C102.521 14.3396 104.442 16.1629 104.442 19.2233C104.442 22.4139 102.423 24.1069 98.9724 24.1069C95.4236 24.1069 93.5027 22.2837 93.5027 19.2233Z" fill="white"/>
<defs>
<linearGradient id="paint0_linear_1176_516" x1="30.1387" y1="0.793945" x2="-5.35599" y2="9.58783" gradientUnits="userSpaceOnUse">
<stop stop-color="#0F5366"/>
<stop offset="1" stop-color="#03313F"/>
</linearGradient>
</defs>
</svg>
