<svg width="40" height="40" viewBox="0 0 40 40" fill="none" xmlns="http://www.w3.org/2000/svg">
<path d="M14.2141 6.896C15.4101 3.396 20.2461 3.29 21.6641 6.578L21.7841 6.898L23.3981 11.618C23.768 12.7005 24.3657 13.691 25.1509 14.5228C25.9362 15.3547 26.8907 16.0084 27.9501 16.44L28.3841 16.602L33.1041 18.214C36.6041 19.41 36.7101 24.246 33.4241 25.664L33.1041 25.784L28.3841 27.398C27.3013 27.7676 26.3103 28.3653 25.4781 29.1505C24.6459 29.9358 23.9919 30.8904 23.5601 31.95L23.3981 32.382L21.7861 37.104C20.5901 40.604 15.7541 40.71 14.3381 37.424L14.2141 37.104L12.6021 32.384C12.2324 31.3012 11.6348 30.3102 10.8496 29.478C10.0643 28.6459 9.10967 27.9918 8.05009 27.56L7.61809 27.398L2.89809 25.786C-0.603914 24.59 -0.709913 19.754 2.57809 18.338L2.89809 18.214L7.61809 16.602C8.70055 16.2321 9.69111 15.6344 10.5229 14.8491C11.3548 14.0639 12.0085 13.1094 12.4401 12.05L12.6021 11.618L14.2141 6.896ZM34.0001 3.61375e-07C34.3742 -4.71944e-07 34.7409 0.104957 35.0584 0.302943C35.3759 0.50093 35.6315 0.784005 35.7961 1.12L35.8921 1.354L36.5921 3.406L38.6461 4.106C39.0211 4.23339 39.3498 4.46923 39.5905 4.78363C39.8313 5.09803 39.9734 5.47684 39.9986 5.87204C40.0239 6.26725 39.9313 6.66106 39.7325 7.00357C39.5337 7.34609 39.2378 7.62188 38.8821 7.796L38.6461 7.892L36.5941 8.592L35.8941 10.646C35.7665 11.0209 35.5305 11.3494 35.2159 11.59C34.9014 11.8306 34.5226 11.9724 34.1274 11.9974C33.7322 12.0225 33.3384 11.9297 32.9961 11.7308C32.6537 11.5318 32.378 11.2357 32.2041 10.88L32.1081 10.646L31.4081 8.594L29.3541 7.894C28.9791 7.76661 28.6504 7.53077 28.4096 7.21637C28.1688 6.90197 28.0268 6.52316 28.0015 6.12796C27.9763 5.73275 28.0689 5.33894 28.2677 4.99643C28.4664 4.65391 28.7624 4.37812 29.1181 4.204L29.3541 4.108L31.4061 3.408L32.1061 1.354C32.2409 0.958851 32.4961 0.615817 32.8358 0.372998C33.1754 0.130178 33.5826 -0.000250563 34.0001 3.61375e-07Z" fill="url(#paint0_linear_1299_4823)"/>
<defs>
<linearGradient id="paint0_linear_1299_4823" x1="40.0027" y1="13.0152" x2="5.78355" y2="7.60662" gradientUnits="userSpaceOnUse">
<stop stop-color="#007A5A"/>
<stop offset="1" stop-color="#21C004"/>
</linearGradient>
</defs>
</svg>
