<svg width="41" height="40" viewBox="0 0 41 40" fill="none" xmlns="http://www.w3.org/2000/svg">
<path fill-rule="evenodd" clip-rule="evenodd" d="M2 0C1.17157 0 0.5 0.671574 0.5 1.5V38.5C0.5 39.3284 1.17157 40 2 40H39C39.8284 40 40.5 39.3284 40.5 38.5V1.5C40.5 0.671573 39.8284 0 39 0H2ZM34.2943 6.05078H29.4388L21.4377 15.1985L14.5198 6.0521H4.5L16.4726 21.7033L5.12542 34.6735H9.9836L18.7421 24.6668L26.3948 34.6735H36.1666L23.686 18.1765L34.2943 6.05078ZM30.4257 31.768H27.7354L10.171 8.80446H13.0579L30.4257 31.768Z" fill="white"/>
</svg>
